<svg width="256" height="256" viewBox="0 0 256 256" fill="none" xmlns="http://www.w3.org/2000/svg" role="img" aria-labelledby="title desc">
  <title id="title">translip logo</title>
  <desc id="desc">A rounded blue mark combining timeline bars, a speech waveform, and a play triangle.</desc>
  <defs>
    <linearGradient id="bg" x1="40" y1="32" x2="216" y2="224" gradientUnits="userSpaceOnUse">
      <stop stop-color="#0F172A"/>
      <stop offset="0.45" stop-color="#0F3C7A"/>
      <stop offset="1" stop-color="#06B6D4"/>
    </linearGradient>
    <linearGradient id="wave" x1="76" y1="92" x2="180" y2="156" gradientUnits="userSpaceOnUse">
      <stop stop-color="#E0F2FE"/>
      <stop offset="1" stop-color="#BAE6FD"/>
    </linearGradient>
    <filter id="shadow" x="24" y="20" width="208" height="216" filterUnits="userSpaceOnUse" color-interpolation-filters="sRGB">
      <feDropShadow dx="0" dy="12" stdDeviation="12" flood-color="#082F49" flood-opacity="0.22"/>
    </filter>
  </defs>

  <g filter="url(#shadow)">
    <rect x="40" y="32" width="176" height="192" rx="44" fill="url(#bg)"/>
    <rect x="68" y="174" width="120" height="10" rx="5" fill="#BAE6FD" fill-opacity="0.92"/>
    <rect x="68" y="154" width="84" height="8" rx="4" fill="#7DD3FC" fill-opacity="0.72"/>
    <rect x="160" y="154" width="28" height="8" rx="4" fill="#7DD3FC" fill-opacity="0.45"/>
    <path d="M76 130C87 130 87 96 98 96C109 96 109 148 120 148C131 148 131 84 142 84C153 84 153 126 164 126C171 126 176 111 180 102" stroke="url(#wave)" stroke-width="16" stroke-linecap="round" stroke-linejoin="round"/>
    <path d="M156 78L192 102L156 126V78Z" fill="#F8FAFC"/>
  </g>
</svg>
